<svg width="146" height="37" viewBox="0 0 146 37" fill="none" xmlns="http://www.w3.org/2000/svg">
<g clip-path="url(#clip0)">
<path d="M145.934 16.3958C145.59 13.1604 144.614 10.0195 143.057 7.14392C143.057 7.14392 138.353 9.04996 129.784 8.96991C121.215 8.88985 117.241 7.02956 108.587 4.39542C99.9319 1.76127 93.1745 0.00390625 82.9038 0.00390625C72.633 0.00390625 68.2374 1.34957 60.8203 2.99639C53.4032 4.6432 44.8423 8.19987 44.8423 8.19987C44.8423 8.19987 47.1338 7.43745 54.2932 5.91262C61.4527 4.38779 70.9974 2.69142 82.1347 2.69142C93.2721 2.69142 105.811 6.4425 110.933 8.08551C116.054 9.72851 121.11 11.4401 129.206 11.4401C137.302 11.4401 142.026 9.49979 142.026 9.49979C143.488 11.9432 144.405 14.6609 144.716 17.4746C145.278 22.2474 143.455 27.0696 143.455 27.0696C144.622 25.6325 146.355 21.382 145.934 16.3958Z" fill="white"/>
<path d="M44.4519 9.8391C38.7095 9.10718 27.0959 8.04361 15.0958 12.1263C3.09568 16.2091 0.0195312 19.6781 0.0195312 19.6781L0.269371 24.6338L0.51921 20.0021C0.51921 20.0021 9.34557 14.3068 24.941 12.7591C40.5365 11.2114 49.8664 14.406 60.9101 15.5915C71.9538 16.7771 78.7541 17.1163 88.1426 14.9816C97.5311 12.8468 102.274 9.46933 102.274 9.46933C102.274 9.46933 92.4602 13.8303 78.8752 13.8303C65.2901 13.8303 50.1904 10.571 44.4519 9.8391Z" fill="white"/>
<path d="M13.5147 21.5078V36.7142H12.0899V34.831C11.5337 35.5064 10.838 36.0597 10.0482 36.4549C9.27608 36.8151 8.42882 36.9952 7.57323 36.981C6.81152 36.9922 6.05582 36.8477 5.35464 36.5569C4.65346 36.2661 4.02229 35.8353 3.50163 35.2923C2.95098 34.7538 2.51741 34.1122 2.22694 33.406C1.93648 32.6999 1.79511 31.9437 1.81131 31.1828C1.80382 30.4312 1.95252 29.686 2.24842 28.9921C2.54432 28.2982 2.98128 27.6701 3.53286 27.1459C4.06009 26.6041 4.69642 26.1747 5.40184 25.8847C6.10726 25.5947 6.8665 25.4505 7.63179 25.4609C8.50296 25.4486 9.36378 25.6463 10.138 26.0366C10.9173 26.4545 11.5857 27.0445 12.0899 27.7596V21.5078H13.5147ZM7.73329 26.8218C6.9475 26.8166 6.17489 27.0189 5.49728 27.4075C4.81967 27.796 4.26229 28.3563 3.8842 29.029C3.48297 29.708 3.27412 30.479 3.27912 31.2629C3.28046 32.0417 3.4904 32.8065 3.8881 33.4815C4.27085 34.1648 4.83613 34.7339 5.52377 35.1283C6.18947 35.5156 6.9506 35.7186 7.72548 35.7154C8.5142 35.7154 9.28926 35.5143 9.97404 35.1322C10.6591 34.7634 11.2255 34.2156 11.6097 33.5501C11.995 32.8623 12.1914 32.0888 12.1797 31.3048C12.1966 30.7171 12.0915 30.1321 11.8708 29.5851C11.6501 29.038 11.3183 28.5403 10.8953 28.1218C10.4898 27.7023 9.99916 27.37 9.45469 27.1461C8.91023 26.9223 8.32394 26.8119 7.73329 26.8218Z" fill="white"/>
<path d="M26.3308 33.0741L27.5488 33.6992C27.209 34.3938 26.7435 35.0228 26.1747 35.5557C25.6624 36.021 25.0634 36.386 24.4102 36.6307C23.6985 36.8895 22.9444 37.0187 22.185 37.0119C20.3633 37.0119 18.9319 36.4261 17.8909 35.2546C16.8841 34.1623 16.3278 32.7443 16.3294 31.2748C16.3153 29.9241 16.7786 28.6101 17.6411 27.5542C18.1589 26.8849 18.8338 26.3468 19.6089 25.9853C20.384 25.6238 21.2367 25.4493 22.0952 25.4766C22.9787 25.448 23.8563 25.6262 24.6549 25.9962C25.4535 26.3663 26.1499 26.9174 26.686 27.6037C27.524 28.68 27.9606 30.0033 27.9235 31.3548H17.8128C17.794 32.5197 18.2423 33.6456 19.062 34.4922C19.4459 34.8877 19.9102 35.2005 20.4252 35.4106C20.9401 35.6207 21.4944 35.7233 22.0523 35.712C22.6212 35.713 23.1856 35.6149 23.7192 35.4223C24.2233 35.2519 24.6915 34.9936 25.1011 34.6599C25.5909 34.1951 26.0055 33.6604 26.3308 33.0741ZM26.3308 30.1197C26.1864 29.4662 25.8987 28.8511 25.4876 28.3166C25.0944 27.8457 24.5928 27.4721 24.0237 27.2263C23.425 26.953 22.7718 26.8125 22.1109 26.8146C21.0628 26.7938 20.0462 27.1647 19.2689 27.8515C18.6291 28.4744 18.1814 29.2603 17.9768 30.1197H26.3308Z" fill="white"/>
<path d="M30.4688 21.5078H31.9131V36.7142H30.4688V21.5078Z" fill="white"/>
<path d="M35.5203 21.2256C35.8248 21.2426 36.1111 21.3727 36.3205 21.5893C36.5299 21.8058 36.6466 22.0923 36.6466 22.3902C36.6466 22.688 36.5299 22.9746 36.3205 23.1911C36.1111 23.4076 35.8248 23.5377 35.5203 23.5548C35.2119 23.548 34.918 23.4253 34.6999 23.2123C34.4817 22.9993 34.3561 22.7123 34.3492 22.4111C34.3477 22.2573 34.3781 22.1047 34.4385 21.9626C34.4988 21.8204 34.588 21.6916 34.7005 21.5839C34.8049 21.4727 34.9315 21.3836 35.0725 21.322C35.2134 21.2603 35.3658 21.2275 35.5203 21.2256ZM34.802 25.7429H36.2503V36.7141H34.802V25.7429Z" fill="white"/>
<path d="M38.2761 25.7432H39.8142L43.5852 33.7485L47.3094 25.7432H48.8709L43.7179 36.7143H43.4486L38.2761 25.7432Z" fill="white"/>
<path d="M60.6057 33.0739L61.8237 33.6991C61.4777 34.3931 61.0085 35.0216 60.4378 35.5556C59.925 36.0221 59.3245 36.3872 58.6694 36.6306C57.9592 36.8894 57.2063 37.0186 56.4482 37.0118C54.6135 37.0118 53.1821 36.426 52.1541 35.2544C51.1486 34.1614 50.5924 32.7439 50.5926 31.2746C50.5785 29.924 51.0418 28.61 51.9043 27.5541C52.4234 26.8852 53.099 26.3475 53.8746 25.986C54.6503 25.6246 55.5033 25.4498 56.3623 25.4765C57.2451 25.4485 58.122 25.627 58.9199 25.997C59.7177 26.367 60.4135 26.9178 60.9492 27.6036C61.7883 28.6795 62.2262 30.0028 62.1906 31.3547H52.0799C52.0622 32.5201 52.5119 33.6461 53.333 34.492C53.7159 34.8878 54.1794 35.2009 54.6938 35.411C55.2082 35.6211 55.762 35.7236 56.3194 35.7119C56.8895 35.7129 57.4553 35.6148 57.9902 35.4222C58.4927 35.2509 58.9595 34.9927 59.3682 34.6598C59.862 34.1967 60.2794 33.6617 60.6057 33.0739ZM60.6057 30.1196C60.4578 29.4672 60.1705 28.8528 59.7625 28.3165C59.3675 27.8473 58.8664 27.4741 58.2986 27.2262C57.6997 26.9534 57.0466 26.8128 56.3857 26.8145C55.3376 26.7929 54.3207 27.1639 53.5438 27.8514C52.891 28.4758 52.4346 29.2694 52.2283 30.1386L60.6057 30.1196Z" fill="white"/>
<path d="M64.4312 25.743H65.9068V27.3479C66.2722 26.791 66.7456 26.3093 67.3004 25.9298C67.7517 25.6291 68.2843 25.4659 68.8307 25.4609C69.2838 25.4793 69.7246 25.6105 70.1111 25.8421L69.3577 27.0315C69.1128 26.9183 68.8475 26.8535 68.5769 26.8409C68.0548 26.8584 67.5581 27.065 67.1833 27.4203C66.673 27.9121 66.318 28.5366 66.1605 29.2196C65.9809 29.8448 65.8912 31.1092 65.8912 33.0127V36.7218H64.4312V25.743Z" fill="white"/>
<path d="M80.7959 33.0741L82.0177 33.6992C81.6718 34.3932 81.2026 35.0217 80.6319 35.5557C80.1191 36.0222 79.5186 36.3873 78.8635 36.6307C78.1532 36.8892 77.4003 37.0184 76.6423 37.0119C74.8206 37.0119 73.3892 36.4261 72.3482 35.2546C71.3414 34.1623 70.7851 32.7443 70.7867 31.2748C70.7726 29.9241 71.2358 28.6101 72.0983 27.5542C72.6166 26.8854 73.2916 26.3477 74.0666 25.9862C74.8416 25.6247 75.6941 25.4499 76.5525 25.4766C77.436 25.448 78.3136 25.6262 79.1122 25.9962C79.9108 26.3663 80.6072 26.9174 81.1433 27.6037C81.9787 28.6759 82.4177 29.9927 82.3886 31.3396H72.2779C72.2608 32.5042 72.7088 33.6295 73.5271 34.4769C73.911 34.8724 74.3753 35.1853 74.8903 35.3954C75.4052 35.6054 75.9594 35.7081 76.5174 35.6968C77.0875 35.6975 77.6532 35.5994 78.1882 35.4071C78.6907 35.2358 79.1575 34.9775 79.5662 34.6446C80.0547 34.1845 80.4692 33.655 80.7959 33.0741ZM80.7959 30.1197C80.651 29.4671 80.3648 28.8523 79.9566 28.3166C79.5616 27.8474 79.0605 27.4742 78.4927 27.2263C77.8937 26.9539 77.2406 26.8133 76.5798 26.8146C75.5305 26.7932 74.5125 27.1641 73.734 27.8515C73.0839 28.4773 72.629 29.2705 72.4224 30.1388L80.7959 30.1197Z" fill="white"/>
<path d="M96.3834 21.5078V36.7142H94.9585V34.831C94.4033 35.5073 93.7074 36.0608 92.9168 36.455C91.8401 36.9563 90.6296 37.1156 89.4553 36.9105C88.2811 36.7054 87.2022 36.1461 86.3703 35.3113C85.8209 34.7721 85.3884 34.1303 85.0986 33.4243C84.8089 32.7182 84.6678 31.9624 84.6838 31.2019C84.6715 30.4491 84.816 29.7017 85.1086 29.0051C85.4011 28.3084 85.8357 27.6772 86.3859 27.1497C86.9131 26.6079 87.5494 26.1785 88.2549 25.8885C88.9603 25.5986 89.7195 25.4543 90.4848 25.4647C91.356 25.452 92.217 25.6497 92.991 26.0404C93.7703 26.4583 94.4387 27.0484 94.9429 27.7634V21.5116L96.3834 21.5078ZM90.6058 26.8218C89.8194 26.8159 89.0459 27.0179 88.3676 27.4065C87.6892 27.7951 87.1312 28.3558 86.7528 29.029C86.3551 29.7033 86.1458 30.4677 86.1458 31.2458C86.1458 32.0238 86.3551 32.7883 86.7528 33.4625C87.1367 34.1449 87.7017 34.7138 88.3885 35.1093C89.0542 35.4966 89.8153 35.6995 90.5902 35.6964C91.3791 35.6974 92.1544 35.4963 92.8388 35.1131C93.5279 34.7529 94.0999 34.2115 94.49 33.5502C94.8784 32.8633 95.0762 32.0893 95.0639 31.3048C95.0799 30.7172 94.9744 30.1325 94.7538 29.5855C94.5331 29.0386 94.2018 28.5408 93.7796 28.1218C93.3723 27.7014 92.8796 27.3686 92.3331 27.1448C91.7866 26.921 91.1983 26.811 90.6058 26.8218Z" fill="white"/>
<path d="M110.648 28.023L109.5 28.7206C109.038 28.1 108.426 27.5996 107.72 27.2634C107.013 26.9271 106.233 26.7651 105.448 26.7917C104.819 26.7725 104.194 26.877 103.607 27.099C103.021 27.321 102.487 27.656 102.036 28.084C101.599 28.4845 101.253 28.9698 101.02 29.5088C100.786 30.0479 100.671 30.6286 100.681 31.2137C100.679 32.007 100.895 32.7864 101.306 33.4704C101.707 34.1638 102.299 34.7331 103.016 35.1134C103.765 35.508 104.605 35.7088 105.456 35.6967C106.236 35.7143 107.01 35.5507 107.713 35.2194C108.416 34.888 109.029 34.3983 109.5 33.7906L110.648 34.5264C110.107 35.3175 109.359 35.9521 108.481 36.3638C107.516 36.8116 106.458 37.0347 105.389 37.0156C104.577 37.0412 103.768 36.9085 103.01 36.625C102.251 36.3416 101.557 35.9132 100.97 35.365C100.405 34.8515 99.9567 34.2279 99.6541 33.5344C99.3515 32.841 99.2014 32.0932 99.2136 31.3395C99.2073 30.2986 99.4921 29.2758 100.037 28.3813C100.572 27.4792 101.353 26.7401 102.294 26.2465C103.279 25.7301 104.384 25.4677 105.503 25.4841C106.234 25.482 106.962 25.5939 107.657 25.8158C108.289 26.0096 108.884 26.3032 109.418 26.6849C109.912 27.0501 110.329 27.5043 110.648 28.023Z" fill="white"/>
<path d="M124.705 25.7427V36.7138H123.28V34.8307C122.724 35.506 122.028 36.0594 121.238 36.4546C120.162 36.956 118.951 37.1153 117.777 36.9102C116.603 36.7051 115.524 36.1458 114.692 35.311C114.142 34.772 113.709 34.1303 113.418 33.4243C113.128 32.7182 112.986 31.9623 113.002 31.2016C112.99 30.4485 113.135 29.701 113.428 29.0044C113.722 28.3078 114.157 27.6767 114.708 27.1493C115.235 26.6076 115.871 26.1782 116.577 25.8882C117.282 25.5982 118.041 25.4539 118.806 25.4644C119.678 25.4521 120.538 25.6498 121.313 26.04C122.092 26.458 122.76 27.048 123.265 27.7631V25.7465L124.705 25.7427ZM118.924 26.8215C118.138 26.8162 117.365 27.0186 116.688 27.4071C116.01 27.7957 115.453 28.356 115.074 29.0287C114.677 29.7029 114.467 30.4673 114.467 31.2454C114.467 32.0235 114.677 32.7879 115.074 33.4621C115.457 34.1454 116.023 34.7145 116.71 35.109C117.376 35.4962 118.137 35.6992 118.912 35.696C119.701 35.696 120.476 35.4949 121.16 35.1128C121.846 34.744 122.412 34.1962 122.796 33.5308C123.181 32.8429 123.378 32.0694 123.366 31.2854C123.383 30.6977 123.278 30.1127 123.057 29.5657C122.836 29.0186 122.505 28.5209 122.082 28.1024C121.675 27.6868 121.184 27.3583 120.64 27.1378C120.097 26.9173 119.512 26.8096 118.924 26.8215Z" fill="white"/>
<path d="M127.492 25.7429H128.972V27.3478C129.337 26.7896 129.81 26.3065 130.366 25.9259C130.815 25.6244 131.347 25.4611 131.892 25.457C132.345 25.4744 132.786 25.6057 133.172 25.8382L132.419 27.0276C132.174 26.914 131.909 26.8492 131.638 26.837C131.116 26.8545 130.619 27.0611 130.245 27.4164C129.735 27.9091 129.381 28.5332 129.222 29.2157C129.047 29.8409 128.959 31.1053 128.956 33.0088V36.7179H127.477L127.492 25.7429Z" fill="white"/>
<path d="M140.137 26.9438L139.207 27.8815C138.427 27.1496 137.671 26.7837 136.939 26.7837C136.492 26.7745 136.059 26.9374 135.733 27.2373C135.576 27.3675 135.45 27.5292 135.363 27.7115C135.276 27.8938 135.231 28.0922 135.23 28.2932C135.239 28.671 135.385 29.0332 135.643 29.3149C136.149 29.7948 136.739 30.1822 137.384 30.4585C138.221 30.8259 138.969 31.3625 139.578 32.0329C139.954 32.5319 140.154 33.1365 140.148 33.7559C140.156 34.1823 140.073 34.6055 139.905 34.9991C139.737 35.3927 139.488 35.7481 139.172 36.0432C138.854 36.3519 138.474 36.5942 138.057 36.7554C137.639 36.9166 137.193 36.9934 136.744 36.981C136.101 36.9821 135.466 36.8414 134.886 36.5693C134.313 36.3059 133.811 35.9141 133.422 35.4256L134.332 34.4193C135.068 35.23 135.849 35.6366 136.674 35.6391C137.221 35.651 137.751 35.4556 138.153 35.094C138.345 34.9371 138.499 34.7411 138.605 34.5199C138.711 34.2986 138.766 34.0574 138.766 33.8131C138.773 33.4194 138.635 33.0365 138.376 32.7343C137.842 32.2463 137.227 31.8506 136.557 31.564C135.758 31.2135 135.049 30.6925 134.484 30.0392C134.12 29.5428 133.928 28.9456 133.937 28.3352C133.927 27.9485 133.999 27.5639 134.15 27.2061C134.3 26.8484 134.526 26.5253 134.812 26.2576C135.105 25.9825 135.451 25.7676 135.831 25.6255C136.21 25.4834 136.615 25.4171 137.021 25.4304C138.048 25.4609 139.086 25.9564 140.137 26.9438Z" fill="white"/>
</g>
<defs>
<clipPath id="clip0">
<rect width="146" height="37" fill="white"/>
</clipPath>
</defs>
</svg>
