<svg width="122" height="41" viewBox="0 0 122 41" fill="none" xmlns="http://www.w3.org/2000/svg">
<path d="M9.27662 33.5647H9.96646H105.956C106.915 33.5647 107.869 33.4267 108.789 33.1548L113.816 31.6697C115.335 31.2206 116.975 31.3526 118.532 31.0538C122.963 30.2029 121.056 22.9555 118.38 16.8691C117.09 13.9355 114.235 12.0926 111.078 11.5423C88.6426 7.63194 97.5845 0.476563 69.3836 0.476562C56.298 0.476562 46.7561 6.70684 41.9399 10.7519C39.5696 12.7427 36.597 14.0471 33.5019 14.0087C27.3543 13.9326 16.9882 14.0964 11.7817 15.8428C5.77755 17.8567 2.70175 21.2906 1.32988 25.0236C-0.384663 29.689 4.30616 33.5647 9.27662 33.5647Z" fill="#292929" fill-opacity="0.5"/>
<path d="M108.61 30.987C108.61 34.7848 105.462 37.9407 101.483 37.9407C97.5034 37.9407 94.3555 34.7848 94.3555 30.987C94.3555 27.1892 97.5034 24.0332 101.483 24.0332C105.462 24.0332 108.61 27.1892 108.61 30.987Z" fill="#949494" stroke="white" stroke-width="5"/>
<path d="M26.3407 30.987C26.3407 34.7848 23.1928 37.9407 19.2135 37.9407C15.2341 37.9407 12.0862 34.7848 12.0862 30.987C12.0862 27.1892 15.2341 24.0332 19.2135 24.0332C23.1928 24.0332 26.3407 27.1892 26.3407 30.987Z" fill="#949494" stroke="white" stroke-width="5"/>
<path d="M70.413 12.7966V4.68424C70.413 4.25834 70.0678 3.91309 69.6419 3.91309C62.3463 3.91309 55.2005 5.98288 49.0344 9.88205L45.762 11.9514C44.9151 12.4869 45.2945 13.7966 46.2964 13.7966H69.413C69.9653 13.7966 70.413 13.3489 70.413 12.7966Z" fill="white"/>
<path d="M72.6011 12.7966V4.68424C72.6011 4.25834 72.9464 3.91309 73.3723 3.91309C80.6678 3.91309 87.8136 5.98288 93.9798 9.88205L97.2522 11.9514C98.099 12.4869 97.7197 13.7966 96.7177 13.7966H73.6011C73.0489 13.7966 72.6011 13.3489 72.6011 12.7966Z" fill="white"/>
</svg>
